<?xml version="1.0" encoding="utf-8"?>
<!-- Generator: Adobe Illustrator 27.0.0, SVG Export Plug-In . SVG Version: 6.00 Build 0)  -->
<svg version="1.1" id="Ebene_1" xmlns="http://www.w3.org/2000/svg" xmlns:xlink="http://www.w3.org/1999/xlink" x="0px" y="0px"
	 viewBox="0 0 100 100" style="enable-background:new 0 0 100 100;" xml:space="preserve">
<style type="text/css">
	.st0{fill:#322317;}
	.st1{fill:#FFFFFF;}
	.st2{fill:#FFFFFF;stroke:#322317;stroke-miterlimit:10;}
</style>
<path class="st0" d="M40.9,95.89L4.12,59.1c-5.03-5.03-5.03-13.18,0-18.2L40.9,4.12c5.03-5.03,13.18-5.03,18.2,0L95.88,40.9
	c5.03,5.03,5.03,13.18,0,18.2L59.1,95.89C54.08,100.91,45.92,100.91,40.9,95.89z"/>
<g>
	<path class="st1" d="M64.33,83.38c-0.74,0-1.26-0.55-1.26-1.28c0-0.77,0.58-1.28,1.26-1.28c0.67,0,1.26,0.51,1.26,1.28
		C65.58,82.87,65,83.38,64.33,83.38z M64.33,81.04c-0.56,0-0.99,0.44-0.99,1.06c0,0.58,0.38,1.06,0.99,1.06
		c0.55,0,0.98-0.43,0.98-1.06C65.31,81.47,64.88,81.04,64.33,81.04z M64.07,82.83h-0.23v-1.42h0.54c0.34,0,0.52,0.12,0.52,0.41
		c0,0.26-0.16,0.36-0.37,0.39l0.4,0.62h-0.26l-0.37-0.61h-0.22V82.83z M64.34,82.03c0.17,0,0.33-0.02,0.33-0.22
		c0-0.17-0.17-0.19-0.31-0.19h-0.28v0.42H64.34z"/>
	<path class="st1" d="M34.42,73.08c0.15-1.5,0.76-2.64,1.67-3.46c0.91-0.82,2.19-1.24,3.65-1.24c2.57,0,4.58,1.48,4.58,4.16
		c0,1.14-0.46,2.36-1.5,2.95c1.52,0.4,2.34,2.15,2.34,3.61c0,3.14-2.72,4.75-5.57,4.75c-1.63,0-3.12-0.44-4.28-1.62
		c-0.86-0.87-1.67-2.36-1.63-3.61h3.8c0,1.14,0.82,2.03,2,2.03c1.14,0,2-0.76,2-1.92c0-1.08-0.93-1.92-1.98-1.92
		c-0.23,0-0.44,0.06-0.65,0.11v-2.49h0.38c0.95,0,1.63-0.59,1.63-1.58c0-0.87-0.63-1.44-1.46-1.44c-0.95,0-1.54,0.72-1.52,1.65
		H34.42z"/>
	<path class="st1" d="M50.91,78.21h0.04l3-9.25h2.96l2.81,9.25h0.04l2.7-9.25h3.88l-4.58,14.33h-3.8l-2.51-8.3h-0.04l-2.81,8.3
		h-3.78l-4.28-14.33h3.88L50.91,78.21z"/>
</g>
<g>
	<path class="st1" d="M31.73,36.95H15.39c-0.35,0-0.63-0.28-0.63-0.63c0-0.35,0.28-0.63,0.63-0.63h16.34c0.35,0,0.63,0.28,0.63,0.63
		C32.36,36.67,32.08,36.95,31.73,36.95z"/>
	<path class="st1" d="M40.03,36.95h-4.62c-0.35,0-0.63-0.28-0.63-0.63c0-0.35,0.28-0.63,0.63-0.63h4.62c0.35,0,0.63,0.28,0.63,0.63
		C40.67,36.67,40.38,36.95,40.03,36.95z"/>
	<path class="st1" d="M55.12,51.34H15.39c-0.35,0-0.63-0.28-0.63-0.63c0-0.35,0.28-0.63,0.63-0.63h39.73c0.35,0,0.63,0.28,0.63,0.63
		C55.75,51.06,55.47,51.34,55.12,51.34z"/>
	<path class="st1" d="M55.12,44.04H25.96c-0.35,0-0.63-0.28-0.63-0.63c0-0.35,0.28-0.63,0.63-0.63h29.16c0.35,0,0.63,0.28,0.63,0.63
		C55.75,43.76,55.47,44.04,55.12,44.04z"/>
	<path class="st1" d="M21.16,44.04h-5.77c-0.35,0-0.63-0.28-0.63-0.63c0-0.35,0.28-0.63,0.63-0.63h5.77c0.35,0,0.63,0.28,0.63,0.63
		C21.8,43.76,21.51,44.04,21.16,44.04z"/>
	<g>
		<polygon class="st1" points="41.22,25.94 19.11,25.94 15.86,29.18 41.22,29.18 		"/>
		<path class="st1" d="M59.16,42.78v13.57H23.57c-0.4,0-0.78,0.14-1.08,0.41l-5.04,4.47l0.06-3.23c0.01-0.43-0.16-0.86-0.46-1.16
			c-0.3-0.31-0.73-0.49-1.16-0.49h-4.54V33.69l-3.25,3.25v21.03c0,0.9,0.73,1.62,1.62,1.62h4.51l-0.1,5.27
			c-0.01,0.65,0.36,1.24,0.94,1.5c0.21,0.1,0.45,0.15,0.69,0.15c0.4,0,0.78-0.14,1.08-0.41l7.34-6.51h36.59
			c0.9,0,1.62-0.73,1.62-1.62V42.78H59.16z"/>
	</g>
</g>
<path class="st1" d="M81.15,26.17v9.47c0,0.4-0.09,0.79-0.27,1.15L69.33,25.03l5.72-4.96l-0.99-0.99l-10.67,9.25L46.9,14.02
	c0.41-0.25,0.86-0.38,1.33-0.38h20.4l-3.25-3.25H48.23c-3.22,0-5.84,2.62-5.84,5.84v19.39c0,3.22,2.62,5.85,5.84,5.85h30.32
	c3.22,0,5.85-2.62,5.85-5.85v-6.22L81.15,26.17z M45.64,35.63V16.24c0-0.42,0.1-0.84,0.3-1.21l11.52,10L45.91,36.78
	C45.73,36.42,45.64,36.03,45.64,35.63z M78.56,38.23H48.23c-0.49,0-0.97-0.14-1.39-0.42l11.67-11.87l4.88,4.23l4.88-4.23
	l11.67,11.87C79.52,38.09,79.05,38.23,78.56,38.23z"/>
</svg>
