<?xml version="1.0" encoding="utf-8"?>
<!-- Generator: Adobe Illustrator 27.0.0, SVG Export Plug-In . SVG Version: 6.00 Build 0)  -->
<svg version="1.1" id="Ebene_1" xmlns="http://www.w3.org/2000/svg" xmlns:xlink="http://www.w3.org/1999/xlink" x="0px" y="0px"
	 viewBox="0 0 16 16" style="enable-background:new 0 0 16 16;" xml:space="preserve">
<style type="text/css">
	.st0{fill:#E4EDF6;}
</style>
<path class="st0" d="M15.21,0H5.87C5.48,0,5.16,0.32,5.16,0.71v6.58C5.16,7.68,5.48,8,5.87,8h9.34c0.39,0,0.71-0.32,0.71-0.71V0.71
	C15.92,0.32,15.6,0,15.21,0z M15.41,7.47c-0.1,0.09-0.22,0.14-0.35,0.14c-0.13,0-0.26-0.05-0.36-0.15l-2.96-3.07l-1.2,1.05
	l-1.2-1.06L6.38,7.46c-0.1,0.1-0.23,0.15-0.36,0.15c-0.12,0-0.25-0.05-0.35-0.14c-0.2-0.19-0.2-0.51-0.01-0.71l2.93-3.04L5.72,1.19
	c-0.21-0.18-0.23-0.5-0.04-0.71c0.18-0.21,0.5-0.23,0.71-0.04l4.16,3.67l0.86-0.76c0.01-0.01,0.01-0.01,0.01-0.02
	c0.01-0.01,0.02-0.01,0.03-0.02l3.28-2.88c0.21-0.18,0.52-0.16,0.71,0.05c0.18,0.21,0.16,0.52-0.05,0.71l-2.9,2.54l2.93,3.03
	C15.61,6.96,15.61,7.28,15.41,7.47z"/>
<path class="st0" d="M12.86,8.68c0,0-7.06,0-7.56,0S4.53,8.26,4.53,7.9c0-0.36,0-2.19,0-2.19H0.49c-0.22,0-0.41,0.18-0.41,0.41v7.61
	c0,0.22,0.18,0.41,0.41,0.41h1.13l-0.02,1.32c0,0.16,0.09,0.31,0.23,0.38c0.05,0.03,0.11,0.04,0.17,0.04c0.1,0,0.2-0.04,0.27-0.1
	l1.84-1.63h9.16c0.22,0,0.41-0.18,0.41-0.41V8.68H12.86z M3.72,10.11c0,0.28-0.22,0.5-0.5,0.5H1.69c-0.28,0-0.5-0.22-0.5-0.5
	s0.22-0.5,0.5-0.5h1.53C3.5,9.61,3.72,9.83,3.72,10.11z M3.72,7.83c0,0.28-0.22,0.5-0.5,0.5H1.69c-0.28,0-0.5-0.22-0.5-0.5
	c0-0.28,0.22-0.5,0.5-0.5h1.53C3.5,7.33,3.72,7.55,3.72,7.83z M12.13,12.87H1.64c-0.28,0-0.5-0.22-0.5-0.5s0.22-0.5,0.5-0.5h10.49
	c0.28,0,0.5,0.22,0.5,0.5S12.41,12.87,12.13,12.87z M12.13,10.61H5.52c-0.28,0-0.5-0.22-0.5-0.5s0.22-0.5,0.5-0.5h6.61
	c0.28,0,0.5,0.22,0.5,0.5S12.41,10.61,12.13,10.61z"/>
</svg>
